<?xml version="1.0" encoding="utf-8" standalone="no"?>
<!DOCTYPE svg PUBLIC "-//W3C//DTD SVG 1.1//EN"
  "http://www.w3.org/Graphics/SVG/1.1/DTD/svg11.dtd">
<svg xmlns:xlink="http://www.w3.org/1999/xlink" width="460.8pt" height="345.6pt" viewBox="0 0 460.8 345.6" xmlns="http://www.w3.org/2000/svg" version="1.1">
 <metadata>
  <rdf:RDF xmlns:dc="http://purl.org/dc/elements/1.1/" xmlns:cc="http://creativecommons.org/ns#" xmlns:rdf="http://www.w3.org/1999/02/22-rdf-syntax-ns#">
   <cc:Work>
    <dc:type rdf:resource="http://purl.org/dc/dcmitype/StillImage"/>
    <dc:date>2023-11-20T18:37:29.043241</dc:date>
    <dc:format>image/svg+xml</dc:format>
    <dc:creator>
     <cc:Agent>
      <dc:title>Matplotlib v3.7.0, https://matplotlib.org/</dc:title>
     </cc:Agent>
    </dc:creator>
   </cc:Work>
  </rdf:RDF>
 </metadata>
 <defs>
  <style type="text/css">*{stroke-linejoin: round; stroke-linecap: butt}</style>
 </defs>
 <g id="figure_1">
  <g id="patch_1">
   <path d="M 0 345.6 
L 460.8 345.6 
L 460.8 0 
L 0 0 
z
" style="fill: #ffffff"/>
  </g>
  <g id="axes_1">
   <g id="patch_2">
    <path d="M 57.6 307.584 
L 414.72 307.584 
L 414.72 41.472 
L 57.6 41.472 
z
" style="fill: #ffffff"/>
   </g>
   <g id="matplotlib.axis_1">
    <g id="xtick_1">
     <g id="text_1">
      <text style="fill: #262626; font: 10px 'Arial', 'DejaVu Sans', 'Liberation Sans', 'Bitstream Vera Sans', sans-serif; text-anchor: middle" x="94.284768" y="322.182437" transform="rotate(-0 94.284768 322.182437)">0</text>
     </g>
    </g>
    <g id="xtick_2">
     <g id="text_2">
      <text style="fill: #262626; font: 10px 'Arial', 'DejaVu Sans', 'Liberation Sans', 'Bitstream Vera Sans', sans-serif; text-anchor: middle" x="135.262187" y="322.182437" transform="rotate(-0 135.262187 322.182437)">2</text>
     </g>
    </g>
    <g id="xtick_3">
     <g id="text_3">
      <text style="fill: #262626; font: 10px 'Arial', 'DejaVu Sans', 'Liberation Sans', 'Bitstream Vera Sans', sans-serif; text-anchor: middle" x="176.239606" y="322.182437" transform="rotate(-0 176.239606 322.182437)">4</text>
     </g>
    </g>
    <g id="xtick_4">
     <g id="text_4">
      <text style="fill: #262626; font: 10px 'Arial', 'DejaVu Sans', 'Liberation Sans', 'Bitstream Vera Sans', sans-serif; text-anchor: middle" x="217.217026" y="322.182437" transform="rotate(-0 217.217026 322.182437)">6</text>
     </g>
    </g>
    <g id="xtick_5">
     <g id="text_5">
      <text style="fill: #262626; font: 10px 'Arial', 'DejaVu Sans', 'Liberation Sans', 'Bitstream Vera Sans', sans-serif; text-anchor: middle" x="258.194445" y="322.182437" transform="rotate(-0 258.194445 322.182437)">8</text>
     </g>
    </g>
    <g id="xtick_6">
     <g id="text_6">
      <text style="fill: #262626; font: 10px 'Arial', 'DejaVu Sans', 'Liberation Sans', 'Bitstream Vera Sans', sans-serif; text-anchor: middle" x="299.171865" y="322.182437" transform="rotate(-0 299.171865 322.182437)">10</text>
     </g>
    </g>
    <g id="xtick_7">
     <g id="text_7">
      <text style="fill: #262626; font: 10px 'Arial', 'DejaVu Sans', 'Liberation Sans', 'Bitstream Vera Sans', sans-serif; text-anchor: middle" x="340.149284" y="322.182437" transform="rotate(-0 340.149284 322.182437)">12</text>
     </g>
    </g>
    <g id="xtick_8">
     <g id="text_8">
      <text style="fill: #262626; font: 10px 'Arial', 'DejaVu Sans', 'Liberation Sans', 'Bitstream Vera Sans', sans-serif; text-anchor: middle" x="381.126703" y="322.182437" transform="rotate(-0 381.126703 322.182437)">14</text>
     </g>
    </g>
   </g>
   <g id="matplotlib.axis_2">
    <g id="ytick_1">
     <g id="text_9">
      <text style="fill: #262626; font: 10px 'Arial', 'DejaVu Sans', 'Liberation Sans', 'Bitstream Vera Sans', sans-serif; text-anchor: end" x="50.6" y="311.383219" transform="rotate(-0 50.6 311.383219)">0.0</text>
     </g>
    </g>
    <g id="ytick_2">
     <g id="text_10">
      <text style="fill: #262626; font: 10px 'Arial', 'DejaVu Sans', 'Liberation Sans', 'Bitstream Vera Sans', sans-serif; text-anchor: end" x="50.6" y="272.322677" transform="rotate(-0 50.6 272.322677)">0.1</text>
     </g>
    </g>
    <g id="ytick_3">
     <g id="text_11">
      <text style="fill: #262626; font: 10px 'Arial', 'DejaVu Sans', 'Liberation Sans', 'Bitstream Vera Sans', sans-serif; text-anchor: end" x="50.6" y="233.262135" transform="rotate(-0 50.6 233.262135)">0.2</text>
     </g>
    </g>
    <g id="ytick_4">
     <g id="text_12">
      <text style="fill: #262626; font: 10px 'Arial', 'DejaVu Sans', 'Liberation Sans', 'Bitstream Vera Sans', sans-serif; text-anchor: end" x="50.6" y="194.201593" transform="rotate(-0 50.6 194.201593)">0.3</text>
     </g>
    </g>
    <g id="ytick_5">
     <g id="text_13">
      <text style="fill: #262626; font: 10px 'Arial', 'DejaVu Sans', 'Liberation Sans', 'Bitstream Vera Sans', sans-serif; text-anchor: end" x="50.6" y="155.141051" transform="rotate(-0 50.6 155.141051)">0.4</text>
     </g>
    </g>
    <g id="ytick_6">
     <g id="text_14">
      <text style="fill: #262626; font: 10px 'Arial', 'DejaVu Sans', 'Liberation Sans', 'Bitstream Vera Sans', sans-serif; text-anchor: end" x="50.6" y="116.08051" transform="rotate(-0 50.6 116.08051)">0.5</text>
     </g>
    </g>
    <g id="ytick_7">
     <g id="text_15">
      <text style="fill: #262626; font: 10px 'Arial', 'DejaVu Sans', 'Liberation Sans', 'Bitstream Vera Sans', sans-serif; text-anchor: end" x="50.6" y="77.019968" transform="rotate(-0 50.6 77.019968)">0.6</text>
     </g>
    </g>
    <g id="text_16">
     <text style="fill: #262626; font: 10px 'Arial', 'DejaVu Sans', 'Liberation Sans', 'Bitstream Vera Sans', sans-serif; text-anchor: middle" x="28.617187" y="174.528" transform="rotate(-90 28.617187 174.528)">Density</text>
    </g>
   </g>
   <g id="patch_3">
    <path d="M 94.284768 307.584 
L 100.453256 307.584 
L 100.453256 54.144 
L 94.284768 54.144 
z
" clip-path="url(#pc8e28daa97)" style="fill: #1f77b4; opacity: 0.4; stroke: #ffffff; stroke-linejoin: miter"/>
   </g>
   <g id="patch_4">
    <path d="M 100.453256 307.584 
L 106.621744 307.584 
L 106.621744 201.913941 
L 100.453256 201.913941 
z
" clip-path="url(#pc8e28daa97)" style="fill: #1f77b4; opacity: 0.4; stroke: #ffffff; stroke-linejoin: miter"/>
   </g>
   <g id="patch_5">
    <path d="M 106.621744 307.584 
L 112.790233 307.584 
L 112.790233 240.19832 
L 106.621744 240.19832 
z
" clip-path="url(#pc8e28daa97)" style="fill: #1f77b4; opacity: 0.4; stroke: #ffffff; stroke-linejoin: miter"/>
   </g>
   <g id="patch_6">
    <path d="M 112.790233 307.584 
L 118.958721 307.584 
L 118.958721 251.774171 
L 112.790233 251.774171 
z
" clip-path="url(#pc8e28daa97)" style="fill: #1f77b4; opacity: 0.4; stroke: #ffffff; stroke-linejoin: miter"/>
   </g>
   <g id="patch_7">
    <path d="M 118.958721 307.584 
L 125.127209 307.584 
L 125.127209 263.156013 
L 118.958721 263.156013 
z
" clip-path="url(#pc8e28daa97)" style="fill: #1f77b4; opacity: 0.4; stroke: #ffffff; stroke-linejoin: miter"/>
   </g>
   <g id="patch_8">
    <path d="M 125.127209 307.584 
L 131.295698 307.584 
L 131.295698 261.280596 
L 125.127209 261.280596 
z
" clip-path="url(#pc8e28daa97)" style="fill: #1f77b4; opacity: 0.4; stroke: #ffffff; stroke-linejoin: miter"/>
   </g>
   <g id="patch_9">
    <path d="M 131.295698 307.584 
L 137.464186 307.584 
L 137.464186 264.708083 
L 131.295698 264.708083 
z
" clip-path="url(#pc8e28daa97)" style="fill: #1f77b4; opacity: 0.4; stroke: #ffffff; stroke-linejoin: miter"/>
   </g>
   <g id="patch_10">
    <path d="M 137.464186 307.584 
L 143.632675 307.584 
L 143.632675 266.777509 
L 137.464186 266.777509 
z
" clip-path="url(#pc8e28daa97)" style="fill: #1f77b4; opacity: 0.4; stroke: #ffffff; stroke-linejoin: miter"/>
   </g>
   <g id="patch_11">
    <path d="M 143.632675 307.584 
L 149.801163 307.584 
L 149.801163 266.971517 
L 143.632675 266.971517 
z
" clip-path="url(#pc8e28daa97)" style="fill: #1f77b4; opacity: 0.4; stroke: #ffffff; stroke-linejoin: miter"/>
   </g>
   <g id="patch_12">
    <path d="M 149.801163 307.584 
L 155.969651 307.584 
L 155.969651 263.932048 
L 149.801163 263.932048 
z
" clip-path="url(#pc8e28daa97)" style="fill: #1f77b4; opacity: 0.4; stroke: #ffffff; stroke-linejoin: miter"/>
   </g>
   <g id="patch_13">
    <path d="M 155.969651 307.584 
L 162.13814 307.584 
L 162.13814 264.126057 
L 155.969651 264.126057 
z
" clip-path="url(#pc8e28daa97)" style="fill: #1f77b4; opacity: 0.4; stroke: #ffffff; stroke-linejoin: miter"/>
   </g>
   <g id="patch_14">
    <path d="M 162.13814 307.584 
L 168.306628 307.584 
L 168.306628 266.001474 
L 162.13814 266.001474 
z
" clip-path="url(#pc8e28daa97)" style="fill: #1f77b4; opacity: 0.4; stroke: #ffffff; stroke-linejoin: miter"/>
   </g>
   <g id="patch_15">
    <path d="M 168.306628 307.584 
L 174.475116 307.584 
L 174.475116 266.324822 
L 168.306628 266.324822 
z
" clip-path="url(#pc8e28daa97)" style="fill: #1f77b4; opacity: 0.4; stroke: #ffffff; stroke-linejoin: miter"/>
   </g>
   <g id="patch_16">
    <path d="M 174.475116 307.584 
L 180.643605 307.584 
L 180.643605 262.767996 
L 174.475116 262.767996 
z
" clip-path="url(#pc8e28daa97)" style="fill: #1f77b4; opacity: 0.4; stroke: #ffffff; stroke-linejoin: miter"/>
   </g>
   <g id="patch_17">
    <path d="M 180.643605 307.584 
L 186.812093 307.584 
L 186.812093 264.126057 
L 180.643605 264.126057 
z
" clip-path="url(#pc8e28daa97)" style="fill: #1f77b4; opacity: 0.4; stroke: #ffffff; stroke-linejoin: miter"/>
   </g>
   <g id="patch_18">
    <path d="M 186.812093 307.584 
L 192.980581 307.584 
L 192.980581 262.638657 
L 186.812093 262.638657 
z
" clip-path="url(#pc8e28daa97)" style="fill: #1f77b4; opacity: 0.4; stroke: #ffffff; stroke-linejoin: miter"/>
   </g>
   <g id="patch_19">
    <path d="M 192.980581 307.584 
L 199.14907 307.584 
L 199.14907 266.130813 
L 192.980581 266.130813 
z
" clip-path="url(#pc8e28daa97)" style="fill: #1f77b4; opacity: 0.4; stroke: #ffffff; stroke-linejoin: miter"/>
   </g>
   <g id="patch_20">
    <path d="M 199.14907 307.584 
L 205.317558 307.584 
L 205.317558 265.613456 
L 199.14907 265.613456 
z
" clip-path="url(#pc8e28daa97)" style="fill: #1f77b4; opacity: 0.4; stroke: #ffffff; stroke-linejoin: miter"/>
   </g>
   <g id="patch_21">
    <path d="M 205.317558 307.584 
L 211.486047 307.584 
L 211.486047 268.588256 
L 205.317558 268.588256 
z
" clip-path="url(#pc8e28daa97)" style="fill: #1f77b4; opacity: 0.4; stroke: #ffffff; stroke-linejoin: miter"/>
   </g>
   <g id="patch_22">
    <path d="M 211.486047 307.584 
L 217.654535 307.584 
L 217.654535 274.408516 
L 211.486047 274.408516 
z
" clip-path="url(#pc8e28daa97)" style="fill: #1f77b4; opacity: 0.4; stroke: #ffffff; stroke-linejoin: miter"/>
   </g>
   <g id="patch_23">
    <path d="M 217.654535 307.584 
L 223.823023 307.584 
L 223.823023 277.771334 
L 217.654535 277.771334 
z
" clip-path="url(#pc8e28daa97)" style="fill: #1f77b4; opacity: 0.4; stroke: #ffffff; stroke-linejoin: miter"/>
   </g>
   <g id="patch_24">
    <path d="M 223.823023 307.584 
L 229.991512 307.584 
L 229.991512 283.720933 
L 223.823023 283.720933 
z
" clip-path="url(#pc8e28daa97)" style="fill: #1f77b4; opacity: 0.4; stroke: #ffffff; stroke-linejoin: miter"/>
   </g>
   <g id="patch_25">
    <path d="M 229.991512 307.584 
L 236.16 307.584 
L 236.16 287.08375 
L 229.991512 287.08375 
z
" clip-path="url(#pc8e28daa97)" style="fill: #1f77b4; opacity: 0.4; stroke: #ffffff; stroke-linejoin: miter"/>
   </g>
   <g id="patch_26">
    <path d="M 236.16 307.584 
L 242.328488 307.584 
L 242.328488 292.386654 
L 236.16 292.386654 
z
" clip-path="url(#pc8e28daa97)" style="fill: #1f77b4; opacity: 0.4; stroke: #ffffff; stroke-linejoin: miter"/>
   </g>
   <g id="patch_27">
    <path d="M 242.328488 307.584 
L 248.496977 307.584 
L 248.496977 295.167445 
L 242.328488 295.167445 
z
" clip-path="url(#pc8e28daa97)" style="fill: #1f77b4; opacity: 0.4; stroke: #ffffff; stroke-linejoin: miter"/>
   </g>
   <g id="patch_28">
    <path d="M 248.496977 307.584 
L 254.665465 307.584 
L 254.665465 298.530262 
L 248.496977 298.530262 
z
" clip-path="url(#pc8e28daa97)" style="fill: #1f77b4; opacity: 0.4; stroke: #ffffff; stroke-linejoin: miter"/>
   </g>
   <g id="patch_29">
    <path d="M 254.665465 307.584 
L 260.833953 307.584 
L 260.833953 300.729027 
L 254.665465 300.729027 
z
" clip-path="url(#pc8e28daa97)" style="fill: #1f77b4; opacity: 0.4; stroke: #ffffff; stroke-linejoin: miter"/>
   </g>
   <g id="patch_30">
    <path d="M 260.833953 307.584 
L 267.002442 307.584 
L 267.002442 303.1218 
L 260.833953 303.1218 
z
" clip-path="url(#pc8e28daa97)" style="fill: #1f77b4; opacity: 0.4; stroke: #ffffff; stroke-linejoin: miter"/>
   </g>
   <g id="patch_31">
    <path d="M 267.002442 307.584 
L 273.17093 307.584 
L 273.17093 303.639157 
L 267.002442 303.639157 
z
" clip-path="url(#pc8e28daa97)" style="fill: #1f77b4; opacity: 0.4; stroke: #ffffff; stroke-linejoin: miter"/>
   </g>
   <g id="patch_32">
    <path d="M 273.17093 307.584 
L 279.339419 307.584 
L 279.339419 304.479861 
L 273.17093 304.479861 
z
" clip-path="url(#pc8e28daa97)" style="fill: #1f77b4; opacity: 0.4; stroke: #ffffff; stroke-linejoin: miter"/>
   </g>
   <g id="patch_33">
    <path d="M 279.339419 307.584 
L 285.507907 307.584 
L 285.507907 305.579244 
L 279.339419 305.579244 
z
" clip-path="url(#pc8e28daa97)" style="fill: #1f77b4; opacity: 0.4; stroke: #ffffff; stroke-linejoin: miter"/>
   </g>
   <g id="patch_34">
    <path d="M 285.507907 307.584 
L 291.676395 307.584 
L 291.676395 306.290609 
L 285.507907 306.290609 
z
" clip-path="url(#pc8e28daa97)" style="fill: #1f77b4; opacity: 0.4; stroke: #ffffff; stroke-linejoin: miter"/>
   </g>
   <g id="patch_35">
    <path d="M 291.676395 307.584 
L 297.844884 307.584 
L 297.844884 306.613957 
L 291.676395 306.613957 
z
" clip-path="url(#pc8e28daa97)" style="fill: #1f77b4; opacity: 0.4; stroke: #ffffff; stroke-linejoin: miter"/>
   </g>
   <g id="patch_36">
    <path d="M 297.844884 307.584 
L 304.013372 307.584 
L 304.013372 305.837922 
L 297.844884 305.837922 
z
" clip-path="url(#pc8e28daa97)" style="fill: #1f77b4; opacity: 0.4; stroke: #ffffff; stroke-linejoin: miter"/>
   </g>
   <g id="patch_37">
    <path d="M 304.013372 307.584 
L 310.18186 307.584 
L 310.18186 306.549287 
L 304.013372 306.549287 
z
" clip-path="url(#pc8e28daa97)" style="fill: #1f77b4; opacity: 0.4; stroke: #ffffff; stroke-linejoin: miter"/>
   </g>
   <g id="patch_38">
    <path d="M 310.18186 307.584 
L 316.350349 307.584 
L 316.350349 306.743296 
L 310.18186 306.743296 
z
" clip-path="url(#pc8e28daa97)" style="fill: #1f77b4; opacity: 0.4; stroke: #ffffff; stroke-linejoin: miter"/>
   </g>
   <g id="patch_39">
    <path d="M 316.350349 307.584 
L 322.518837 307.584 
L 322.518837 306.872635 
L 316.350349 306.872635 
z
" clip-path="url(#pc8e28daa97)" style="fill: #1f77b4; opacity: 0.4; stroke: #ffffff; stroke-linejoin: miter"/>
   </g>
   <g id="patch_40">
    <path d="M 322.518837 307.584 
L 328.687325 307.584 
L 328.687325 306.678626 
L 322.518837 306.678626 
z
" clip-path="url(#pc8e28daa97)" style="fill: #1f77b4; opacity: 0.4; stroke: #ffffff; stroke-linejoin: miter"/>
   </g>
   <g id="patch_41">
    <path d="M 328.687325 307.584 
L 334.855814 307.584 
L 334.855814 307.001974 
L 328.687325 307.001974 
z
" clip-path="url(#pc8e28daa97)" style="fill: #1f77b4; opacity: 0.4; stroke: #ffffff; stroke-linejoin: miter"/>
   </g>
   <g id="patch_42">
    <path d="M 334.855814 307.584 
L 341.024302 307.584 
L 341.024302 306.743296 
L 334.855814 306.743296 
z
" clip-path="url(#pc8e28daa97)" style="fill: #1f77b4; opacity: 0.4; stroke: #ffffff; stroke-linejoin: miter"/>
   </g>
   <g id="patch_43">
    <path d="M 341.024302 307.584 
L 347.192791 307.584 
L 347.192791 307.195983 
L 341.024302 307.195983 
z
" clip-path="url(#pc8e28daa97)" style="fill: #1f77b4; opacity: 0.4; stroke: #ffffff; stroke-linejoin: miter"/>
   </g>
   <g id="patch_44">
    <path d="M 347.192791 307.584 
L 353.361279 307.584 
L 353.361279 307.389991 
L 347.192791 307.389991 
z
" clip-path="url(#pc8e28daa97)" style="fill: #1f77b4; opacity: 0.4; stroke: #ffffff; stroke-linejoin: miter"/>
   </g>
   <g id="patch_45">
    <path d="M 353.361279 307.584 
L 359.529767 307.584 
L 359.529767 307.260652 
L 353.361279 307.260652 
z
" clip-path="url(#pc8e28daa97)" style="fill: #1f77b4; opacity: 0.4; stroke: #ffffff; stroke-linejoin: miter"/>
   </g>
   <g id="patch_46">
    <path d="M 359.529767 307.584 
L 365.698256 307.584 
L 365.698256 307.389991 
L 359.529767 307.389991 
z
" clip-path="url(#pc8e28daa97)" style="fill: #1f77b4; opacity: 0.4; stroke: #ffffff; stroke-linejoin: miter"/>
   </g>
   <g id="patch_47">
    <path d="M 365.698256 307.584 
L 371.866744 307.584 
L 371.866744 307.584 
L 365.698256 307.584 
z
" clip-path="url(#pc8e28daa97)" style="fill: #1f77b4; opacity: 0.4; stroke: #ffffff; stroke-linejoin: miter"/>
   </g>
   <g id="patch_48">
    <path d="M 371.866744 307.584 
L 378.035232 307.584 
L 378.035232 307.51933 
L 371.866744 307.51933 
z
" clip-path="url(#pc8e28daa97)" style="fill: #1f77b4; opacity: 0.4; stroke: #ffffff; stroke-linejoin: miter"/>
   </g>
   <g id="line2d_1">
    <path d="M 73.832727 307.157792 
L 75.464157 306.68934 
L 77.095587 305.805503 
L 78.727017 304.234818 
L 80.358447 301.607186 
L 81.989877 297.472243 
L 83.621307 291.357605 
L 85.252736 282.871978 
L 86.884166 271.841386 
L 88.515596 258.445954 
L 93.409886 212.367306 
L 95.041316 199.385416 
L 96.672746 189.793911 
L 98.304175 184.385492 
L 99.935605 183.353841 
L 101.567035 186.29566 
L 103.198465 192.348929 
L 104.829895 200.414502 
L 108.092755 218.349611 
L 109.724185 226.648098 
L 111.355614 233.927695 
L 112.987044 240.071433 
L 114.618474 245.123756 
L 116.249904 249.212144 
L 117.881334 252.487921 
L 119.512764 255.092592 
L 121.144194 257.1465 
L 122.775624 258.751475 
L 124.407053 259.99843 
L 126.038483 260.973061 
L 129.301343 262.420871 
L 134.195633 264.161112 
L 137.458492 265.191053 
L 140.721352 265.901904 
L 142.352782 266.069068 
L 143.984212 266.096369 
L 147.247072 265.787843 
L 153.772791 264.764837 
L 157.035651 264.639703 
L 160.298511 264.85174 
L 165.1928 265.284643 
L 168.45566 265.260642 
L 171.71852 264.897388 
L 178.244239 263.900044 
L 181.507099 263.668039 
L 184.769959 263.696658 
L 188.032819 263.952833 
L 191.295678 264.393239 
L 196.189968 265.301231 
L 199.452828 266.07385 
L 202.715688 267.10405 
L 205.978547 268.532639 
L 209.241407 270.387269 
L 212.504267 272.549648 
L 219.029986 277.218061 
L 235.344285 289.020181 
L 240.238575 292.111107 
L 245.132864 294.89904 
L 250.027154 297.419724 
L 253.290014 298.902966 
L 256.552873 300.18954 
L 259.815733 301.277961 
L 263.078593 302.186316 
L 267.972883 303.262378 
L 274.498602 304.347701 
L 282.655751 305.468955 
L 287.550041 305.966858 
L 292.444331 306.228701 
L 298.97005 306.277074 
L 305.49577 306.375292 
L 320.178639 306.784246 
L 339.755797 306.990976 
L 356.070096 307.352721 
L 393.592983 307.582268 
L 398.487273 307.583741 
L 398.487273 307.583741 
" clip-path="url(#pc8e28daa97)" style="fill: none; stroke: #1f77b4; stroke-width: 1.5; stroke-linecap: round"/>
   </g>
   <g id="patch_49">
    <path d="M 57.6 307.584 
L 57.6 41.472 
" style="fill: none; stroke: #262626; stroke-width: 0.8; stroke-linejoin: miter; stroke-linecap: square"/>
   </g>
   <g id="patch_50">
    <path d="M 414.72 307.584 
L 414.72 41.472 
" style="fill: none; stroke: #262626; stroke-width: 0.8; stroke-linejoin: miter; stroke-linecap: square"/>
   </g>
   <g id="patch_51">
    <path d="M 57.6 307.584 
L 414.72 307.584 
" style="fill: none; stroke: #262626; stroke-width: 0.8; stroke-linejoin: miter; stroke-linecap: square"/>
   </g>
   <g id="patch_52">
    <path d="M 57.6 41.472 
L 414.72 41.472 
" style="fill: none; stroke: #262626; stroke-width: 0.8; stroke-linejoin: miter; stroke-linecap: square"/>
   </g>
  </g>
 </g>
 <defs>
  <clipPath id="pc8e28daa97">
   <rect x="57.6" y="41.472" width="357.12" height="266.112"/>
  </clipPath>
 </defs>
</svg>
