<?xml version="1.0" encoding="utf-8" standalone="no"?>
<!DOCTYPE svg PUBLIC "-//W3C//DTD SVG 1.1//EN"
  "http://www.w3.org/Graphics/SVG/1.1/DTD/svg11.dtd">
<svg xmlns:xlink="http://www.w3.org/1999/xlink" width="720pt" height="288pt" viewBox="0 0 720 288" xmlns="http://www.w3.org/2000/svg" version="1.1">
 <metadata>
  <rdf:RDF xmlns:dc="http://purl.org/dc/elements/1.1/" xmlns:cc="http://creativecommons.org/ns#" xmlns:rdf="http://www.w3.org/1999/02/22-rdf-syntax-ns#">
   <cc:Work>
    <dc:type rdf:resource="http://purl.org/dc/dcmitype/StillImage"/>
    <dc:date>2023-05-19T14:49:44.440727</dc:date>
    <dc:format>image/svg+xml</dc:format>
    <dc:creator>
     <cc:Agent>
      <dc:title>Matplotlib v3.5.2, https://matplotlib.org/</dc:title>
     </cc:Agent>
    </dc:creator>
   </cc:Work>
  </rdf:RDF>
 </metadata>
 <defs>
  <style type="text/css">*{stroke-linejoin: round; stroke-linecap: butt}</style>
 </defs>
 <g id="figure_1">
  <g id="patch_1">
   <path d="M 0 288 
L 720 288 
L 720 0 
L 0 0 
z
" style="fill: #ffffff"/>
  </g>
  <g id="axes_1">
   <g id="patch_2">
    <path d="M 90 256.32 
L 343.636364 256.32 
L 343.636364 34.56 
L 90 34.56 
z
" style="fill: #ffffff"/>
   </g>
   <g id="matplotlib.axis_1">
    <g id="xtick_1">
     <g id="text_1">
      <text style="fill: #262626; font: 10px 'sans-serif'; text-anchor: middle" x="123.572223" y="270.918437" transform="rotate(-0, 123.572223, 270.918437)">2.5</text>
     </g>
    </g>
    <g id="xtick_2">
     <g id="text_2">
      <text style="fill: #262626; font: 10px 'sans-serif'; text-anchor: middle" x="159.718637" y="270.918437" transform="rotate(-0, 159.718637, 270.918437)">5.0</text>
     </g>
    </g>
    <g id="xtick_3">
     <g id="text_3">
      <text style="fill: #262626; font: 10px 'sans-serif'; text-anchor: middle" x="195.86505" y="270.918437" transform="rotate(-0, 195.86505, 270.918437)">7.5</text>
     </g>
    </g>
    <g id="xtick_4">
     <g id="text_4">
      <text style="fill: #262626; font: 10px 'sans-serif'; text-anchor: middle" x="232.011464" y="270.918437" transform="rotate(-0, 232.011464, 270.918437)">10.0</text>
     </g>
    </g>
    <g id="xtick_5">
     <g id="text_5">
      <text style="fill: #262626; font: 10px 'sans-serif'; text-anchor: middle" x="268.157878" y="270.918437" transform="rotate(-0, 268.157878, 270.918437)">12.5</text>
     </g>
    </g>
    <g id="xtick_6">
     <g id="text_6">
      <text style="fill: #262626; font: 10px 'sans-serif'; text-anchor: middle" x="304.304292" y="270.918437" transform="rotate(-0, 304.304292, 270.918437)">15.0</text>
     </g>
    </g>
    <g id="xtick_7">
     <g id="text_7">
      <text style="fill: #262626; font: 10px 'sans-serif'; text-anchor: middle" x="340.450706" y="270.918437" transform="rotate(-0, 340.450706, 270.918437)">17.5</text>
     </g>
    </g>
   </g>
   <g id="matplotlib.axis_2">
    <g id="ytick_1">
     <g id="text_8">
      <text style="fill: #262626; font: 10px 'sans-serif'; text-anchor: end" x="83" y="260.119219" transform="rotate(-0, 83, 260.119219)">0.0</text>
     </g>
    </g>
    <g id="ytick_2">
     <g id="text_9">
      <text style="fill: #262626; font: 10px 'sans-serif'; text-anchor: end" x="83" y="213.818511" transform="rotate(-0, 83, 213.818511)">0.2</text>
     </g>
    </g>
    <g id="ytick_3">
     <g id="text_10">
      <text style="fill: #262626; font: 10px 'sans-serif'; text-anchor: end" x="83" y="167.517804" transform="rotate(-0, 83, 167.517804)">0.4</text>
     </g>
    </g>
    <g id="ytick_4">
     <g id="text_11">
      <text style="fill: #262626; font: 10px 'sans-serif'; text-anchor: end" x="83" y="121.217097" transform="rotate(-0, 83, 121.217097)">0.6</text>
     </g>
    </g>
    <g id="ytick_5">
     <g id="text_12">
      <text style="fill: #262626; font: 10px 'sans-serif'; text-anchor: end" x="83" y="74.916389" transform="rotate(-0, 83, 74.916389)">0.8</text>
     </g>
    </g>
    <g id="text_13">
     <text style="fill: #262626; font: 10px 'sans-serif'; text-anchor: middle" x="61.017187" y="145.44" transform="rotate(-90, 61.017187, 145.44)">Density</text>
    </g>
   </g>
   <g id="patch_3">
    <path d="M 119.848561 256.32 
L 125.552656 256.32 
L 125.552656 45.12 
L 119.848561 45.12 
z
" clip-path="url(#p31a2d9b59d)" style="fill: #1f77b4; opacity: 0.4; stroke: #ffffff; stroke-linejoin: miter"/>
   </g>
   <g id="patch_4">
    <path d="M 125.552656 256.32 
L 131.256752 256.32 
L 131.256752 231.903676 
L 125.552656 231.903676 
z
" clip-path="url(#p31a2d9b59d)" style="fill: #1f77b4; opacity: 0.4; stroke: #ffffff; stroke-linejoin: miter"/>
   </g>
   <g id="patch_5">
    <path d="M 131.256752 256.32 
L 136.960847 256.32 
L 136.960847 240.834721 
L 131.256752 240.834721 
z
" clip-path="url(#p31a2d9b59d)" style="fill: #1f77b4; opacity: 0.4; stroke: #ffffff; stroke-linejoin: miter"/>
   </g>
   <g id="patch_6">
    <path d="M 136.960847 256.32 
L 142.664942 256.32 
L 142.664942 242.875417 
L 136.960847 242.875417 
z
" clip-path="url(#p31a2d9b59d)" style="fill: #1f77b4; opacity: 0.4; stroke: #ffffff; stroke-linejoin: miter"/>
   </g>
   <g id="patch_7">
    <path d="M 142.664942 256.32 
L 148.369038 256.32 
L 148.369038 242.659343 
L 142.664942 242.659343 
z
" clip-path="url(#p31a2d9b59d)" style="fill: #1f77b4; opacity: 0.4; stroke: #ffffff; stroke-linejoin: miter"/>
   </g>
   <g id="patch_8">
    <path d="M 148.369038 256.32 
L 154.073133 256.32 
L 154.073133 242.899425 
L 148.369038 242.899425 
z
" clip-path="url(#p31a2d9b59d)" style="fill: #1f77b4; opacity: 0.4; stroke: #ffffff; stroke-linejoin: miter"/>
   </g>
   <g id="patch_9">
    <path d="M 154.073133 256.32 
L 159.777228 256.32 
L 159.777228 243.907769 
L 154.073133 243.907769 
z
" clip-path="url(#p31a2d9b59d)" style="fill: #1f77b4; opacity: 0.4; stroke: #ffffff; stroke-linejoin: miter"/>
   </g>
   <g id="patch_10">
    <path d="M 159.777228 256.32 
L 165.481324 256.32 
L 165.481324 242.443269 
L 159.777228 242.443269 
z
" clip-path="url(#p31a2d9b59d)" style="fill: #1f77b4; opacity: 0.4; stroke: #ffffff; stroke-linejoin: miter"/>
   </g>
   <g id="patch_11">
    <path d="M 165.481324 256.32 
L 171.185419 256.32 
L 171.185419 241.843065 
L 165.481324 241.843065 
z
" clip-path="url(#p31a2d9b59d)" style="fill: #1f77b4; opacity: 0.4; stroke: #ffffff; stroke-linejoin: miter"/>
   </g>
   <g id="patch_12">
    <path d="M 171.185419 256.32 
L 176.889514 256.32 
L 176.889514 240.786705 
L 171.185419 240.786705 
z
" clip-path="url(#p31a2d9b59d)" style="fill: #1f77b4; opacity: 0.4; stroke: #ffffff; stroke-linejoin: miter"/>
   </g>
   <g id="patch_13">
    <path d="M 176.889514 256.32 
L 182.59361 256.32 
L 182.59361 239.682328 
L 176.889514 239.682328 
z
" clip-path="url(#p31a2d9b59d)" style="fill: #1f77b4; opacity: 0.4; stroke: #ffffff; stroke-linejoin: miter"/>
   </g>
   <g id="patch_14">
    <path d="M 182.59361 256.32 
L 188.297705 256.32 
L 188.297705 237.28151 
L 182.59361 237.28151 
z
" clip-path="url(#p31a2d9b59d)" style="fill: #1f77b4; opacity: 0.4; stroke: #ffffff; stroke-linejoin: miter"/>
   </g>
   <g id="patch_15">
    <path d="M 188.297705 256.32 
L 194.0018 256.32 
L 194.0018 237.497583 
L 188.297705 237.497583 
z
" clip-path="url(#p31a2d9b59d)" style="fill: #1f77b4; opacity: 0.4; stroke: #ffffff; stroke-linejoin: miter"/>
   </g>
   <g id="patch_16">
    <path d="M 194.0018 256.32 
L 199.705896 256.32 
L 199.705896 234.832675 
L 194.0018 234.832675 
z
" clip-path="url(#p31a2d9b59d)" style="fill: #1f77b4; opacity: 0.4; stroke: #ffffff; stroke-linejoin: miter"/>
   </g>
   <g id="patch_17">
    <path d="M 199.705896 256.32 
L 205.409991 256.32 
L 205.409991 234.856683 
L 199.705896 234.856683 
z
" clip-path="url(#p31a2d9b59d)" style="fill: #1f77b4; opacity: 0.4; stroke: #ffffff; stroke-linejoin: miter"/>
   </g>
   <g id="patch_18">
    <path d="M 205.409991 256.32 
L 211.114086 256.32 
L 211.114086 234.664617 
L 205.409991 234.664617 
z
" clip-path="url(#p31a2d9b59d)" style="fill: #1f77b4; opacity: 0.4; stroke: #ffffff; stroke-linejoin: miter"/>
   </g>
   <g id="patch_19">
    <path d="M 211.114086 256.32 
L 216.818182 256.32 
L 216.818182 235.168789 
L 211.114086 235.168789 
z
" clip-path="url(#p31a2d9b59d)" style="fill: #1f77b4; opacity: 0.4; stroke: #ffffff; stroke-linejoin: miter"/>
   </g>
   <g id="patch_20">
    <path d="M 216.818182 256.32 
L 222.522277 256.32 
L 222.522277 238.265845 
L 216.818182 238.265845 
z
" clip-path="url(#p31a2d9b59d)" style="fill: #1f77b4; opacity: 0.4; stroke: #ffffff; stroke-linejoin: miter"/>
   </g>
   <g id="patch_21">
    <path d="M 222.522277 256.32 
L 228.226373 256.32 
L 228.226373 240.066459 
L 222.522277 240.066459 
z
" clip-path="url(#p31a2d9b59d)" style="fill: #1f77b4; opacity: 0.4; stroke: #ffffff; stroke-linejoin: miter"/>
   </g>
   <g id="patch_22">
    <path d="M 228.226373 256.32 
L 233.930468 256.32 
L 233.930468 241.362901 
L 228.226373 241.362901 
z
" clip-path="url(#p31a2d9b59d)" style="fill: #1f77b4; opacity: 0.4; stroke: #ffffff; stroke-linejoin: miter"/>
   </g>
   <g id="patch_23">
    <path d="M 233.930468 256.32 
L 239.634563 256.32 
L 239.634563 244.868096 
L 233.930468 244.868096 
z
" clip-path="url(#p31a2d9b59d)" style="fill: #1f77b4; opacity: 0.4; stroke: #ffffff; stroke-linejoin: miter"/>
   </g>
   <g id="patch_24">
    <path d="M 239.634563 256.32 
L 245.338659 256.32 
L 245.338659 247.701062 
L 239.634563 247.701062 
z
" clip-path="url(#p31a2d9b59d)" style="fill: #1f77b4; opacity: 0.4; stroke: #ffffff; stroke-linejoin: miter"/>
   </g>
   <g id="patch_25">
    <path d="M 245.338659 256.32 
L 251.042754 256.32 
L 251.042754 249.693741 
L 245.338659 249.693741 
z
" clip-path="url(#p31a2d9b59d)" style="fill: #1f77b4; opacity: 0.4; stroke: #ffffff; stroke-linejoin: miter"/>
   </g>
   <g id="patch_26">
    <path d="M 251.042754 256.32 
L 256.746849 256.32 
L 256.746849 251.014191 
L 251.042754 251.014191 
z
" clip-path="url(#p31a2d9b59d)" style="fill: #1f77b4; opacity: 0.4; stroke: #ffffff; stroke-linejoin: miter"/>
   </g>
   <g id="patch_27">
    <path d="M 256.746849 256.32 
L 262.450945 256.32 
L 262.450945 252.118568 
L 256.746849 252.118568 
z
" clip-path="url(#p31a2d9b59d)" style="fill: #1f77b4; opacity: 0.4; stroke: #ffffff; stroke-linejoin: miter"/>
   </g>
   <g id="patch_28">
    <path d="M 262.450945 256.32 
L 268.15504 256.32 
L 268.15504 253.583067 
L 262.450945 253.583067 
z
" clip-path="url(#p31a2d9b59d)" style="fill: #1f77b4; opacity: 0.4; stroke: #ffffff; stroke-linejoin: miter"/>
   </g>
   <g id="patch_29">
    <path d="M 268.15504 256.32 
L 273.859135 256.32 
L 273.859135 253.799141 
L 268.15504 253.799141 
z
" clip-path="url(#p31a2d9b59d)" style="fill: #1f77b4; opacity: 0.4; stroke: #ffffff; stroke-linejoin: miter"/>
   </g>
   <g id="patch_30">
    <path d="M 273.859135 256.32 
L 279.563231 256.32 
L 279.563231 254.975542 
L 273.859135 254.975542 
z
" clip-path="url(#p31a2d9b59d)" style="fill: #1f77b4; opacity: 0.4; stroke: #ffffff; stroke-linejoin: miter"/>
   </g>
   <g id="patch_31">
    <path d="M 279.563231 256.32 
L 285.267326 256.32 
L 285.267326 255.143599 
L 279.563231 255.143599 
z
" clip-path="url(#p31a2d9b59d)" style="fill: #1f77b4; opacity: 0.4; stroke: #ffffff; stroke-linejoin: miter"/>
   </g>
   <g id="patch_32">
    <path d="M 285.267326 256.32 
L 290.971421 256.32 
L 290.971421 255.143599 
L 285.267326 255.143599 
z
" clip-path="url(#p31a2d9b59d)" style="fill: #1f77b4; opacity: 0.4; stroke: #ffffff; stroke-linejoin: miter"/>
   </g>
   <g id="patch_33">
    <path d="M 290.971421 256.32 
L 296.675517 256.32 
L 296.675517 255.143599 
L 290.971421 255.143599 
z
" clip-path="url(#p31a2d9b59d)" style="fill: #1f77b4; opacity: 0.4; stroke: #ffffff; stroke-linejoin: miter"/>
   </g>
   <g id="patch_34">
    <path d="M 296.675517 256.32 
L 302.379612 256.32 
L 302.379612 255.047566 
L 296.675517 255.047566 
z
" clip-path="url(#p31a2d9b59d)" style="fill: #1f77b4; opacity: 0.4; stroke: #ffffff; stroke-linejoin: miter"/>
   </g>
   <g id="patch_35">
    <path d="M 302.379612 256.32 
L 308.083707 256.32 
L 308.083707 255.023558 
L 302.379612 255.023558 
z
" clip-path="url(#p31a2d9b59d)" style="fill: #1f77b4; opacity: 0.4; stroke: #ffffff; stroke-linejoin: miter"/>
   </g>
   <g id="patch_36">
    <path d="M 308.083707 256.32 
L 313.787803 256.32 
L 313.787803 255.863844 
L 308.083707 255.863844 
z
" clip-path="url(#p31a2d9b59d)" style="fill: #1f77b4; opacity: 0.4; stroke: #ffffff; stroke-linejoin: miter"/>
   </g>
   <g id="line2d_1">
    <path d="M 101.528926 255.691034 
L 102.687612 255.213327 
L 103.846298 254.440519 
L 105.004984 253.238881 
L 106.16367 251.444033 
L 107.322356 248.870462 
L 108.481042 245.331101 
L 109.639728 240.667547 
L 110.798414 234.78874 
L 111.9571 227.712411 
L 114.274472 210.778042 
L 116.591844 193.045283 
L 117.75053 185.38618 
L 118.909215 179.365817 
L 120.067901 175.476472 
L 121.226587 174.011238 
L 122.385273 175.02066 
L 123.543959 178.310072 
L 124.702645 183.477446 
L 125.861331 189.982247 
L 129.337389 211.769242 
L 130.496075 218.23707 
L 131.654761 223.846423 
L 132.813447 228.517166 
L 133.972133 232.269644 
L 135.130819 235.191499 
L 136.289505 237.405919 
L 137.448191 239.046107 
L 138.606877 240.237899 
L 139.765563 241.090224 
L 140.924249 241.691728 
L 142.082935 242.111464 
L 144.400307 242.601184 
L 147.876365 242.904521 
L 153.669795 243.08203 
L 158.304539 242.996994 
L 161.780597 242.715693 
L 166.415341 242.100457 
L 172.208771 241.095739 
L 176.843515 240.085716 
L 183.795631 238.254645 
L 188.430375 237.120084 
L 193.065119 236.233136 
L 198.858549 235.388306 
L 203.493293 234.955388 
L 205.810665 234.90414 
L 208.128037 235.025574 
L 210.445409 235.34746 
L 212.762781 235.860272 
L 216.238839 236.882192 
L 225.508327 239.994118 
L 230.143071 241.715371 
L 234.777815 243.734353 
L 242.888617 247.514897 
L 246.364675 248.822665 
L 249.840733 249.858913 
L 255.634163 251.276652 
L 262.586278 252.778814 
L 267.221022 253.539338 
L 274.173138 254.383791 
L 279.966568 254.86618 
L 285.759998 255.063303 
L 298.505544 255.177039 
L 304.298974 255.259254 
L 308.933718 255.540069 
L 318.203206 256.172256 
L 325.155322 256.305484 
L 332.107438 256.319494 
L 332.107438 256.319494 
" clip-path="url(#p31a2d9b59d)" style="fill: none; stroke: #1f77b4; stroke-width: 1.5; stroke-linecap: round"/>
   </g>
   <g id="patch_37">
    <path d="M 90 256.32 
L 90 34.56 
" style="fill: none; stroke: #262626; stroke-width: 0.8; stroke-linejoin: miter; stroke-linecap: square"/>
   </g>
   <g id="patch_38">
    <path d="M 343.636364 256.32 
L 343.636364 34.56 
" style="fill: none; stroke: #262626; stroke-width: 0.8; stroke-linejoin: miter; stroke-linecap: square"/>
   </g>
   <g id="patch_39">
    <path d="M 90 256.32 
L 343.636364 256.32 
" style="fill: none; stroke: #262626; stroke-width: 0.8; stroke-linejoin: miter; stroke-linecap: square"/>
   </g>
   <g id="patch_40">
    <path d="M 90 34.56 
L 343.636364 34.56 
" style="fill: none; stroke: #262626; stroke-width: 0.8; stroke-linejoin: miter; stroke-linecap: square"/>
   </g>
   <g id="text_14">
    <text style="fill: #262626; font: 12px 'sans-serif'; text-anchor: middle" x="216.818182" y="28.56" transform="rotate(-0, 216.818182, 28.56)">Good Quality Data</text>
   </g>
  </g>
  <g id="axes_2">
   <g id="patch_41">
    <path d="M 394.363636 256.32 
L 648 256.32 
L 648 34.56 
L 394.363636 34.56 
z
" style="fill: #ffffff"/>
   </g>
   <g id="matplotlib.axis_3">
    <g id="xtick_8">
     <g id="text_15">
      <text style="fill: #262626; font: 10px 'sans-serif'; text-anchor: middle" x="415.386929" y="270.918437" transform="rotate(-0, 415.386929, 270.918437)">0</text>
     </g>
    </g>
    <g id="xtick_9">
     <g id="text_16">
      <text style="fill: #262626; font: 10px 'sans-serif'; text-anchor: middle" x="447.677595" y="270.918437" transform="rotate(-0, 447.677595, 270.918437)">2</text>
     </g>
    </g>
    <g id="xtick_10">
     <g id="text_17">
      <text style="fill: #262626; font: 10px 'sans-serif'; text-anchor: middle" x="479.96826" y="270.918437" transform="rotate(-0, 479.96826, 270.918437)">4</text>
     </g>
    </g>
    <g id="xtick_11">
     <g id="text_18">
      <text style="fill: #262626; font: 10px 'sans-serif'; text-anchor: middle" x="512.258926" y="270.918437" transform="rotate(-0, 512.258926, 270.918437)">6</text>
     </g>
    </g>
    <g id="xtick_12">
     <g id="text_19">
      <text style="fill: #262626; font: 10px 'sans-serif'; text-anchor: middle" x="544.549592" y="270.918437" transform="rotate(-0, 544.549592, 270.918437)">8</text>
     </g>
    </g>
    <g id="xtick_13">
     <g id="text_20">
      <text style="fill: #262626; font: 10px 'sans-serif'; text-anchor: middle" x="576.840257" y="270.918437" transform="rotate(-0, 576.840257, 270.918437)">10</text>
     </g>
    </g>
    <g id="xtick_14">
     <g id="text_21">
      <text style="fill: #262626; font: 10px 'sans-serif'; text-anchor: middle" x="609.130923" y="270.918437" transform="rotate(-0, 609.130923, 270.918437)">12</text>
     </g>
    </g>
    <g id="xtick_15">
     <g id="text_22">
      <text style="fill: #262626; font: 10px 'sans-serif'; text-anchor: middle" x="641.421588" y="270.918437" transform="rotate(-0, 641.421588, 270.918437)">14</text>
     </g>
    </g>
   </g>
   <g id="matplotlib.axis_4">
    <g id="ytick_6">
     <g id="text_23">
      <text style="fill: #262626; font: 10px 'sans-serif'; text-anchor: end" x="387.363636" y="260.119219" transform="rotate(-0, 387.363636, 260.119219)">0.00</text>
     </g>
    </g>
    <g id="ytick_7">
     <g id="text_24">
      <text style="fill: #262626; font: 10px 'sans-serif'; text-anchor: end" x="387.363636" y="230.985701" transform="rotate(-0, 387.363636, 230.985701)">0.05</text>
     </g>
    </g>
    <g id="ytick_8">
     <g id="text_25">
      <text style="fill: #262626; font: 10px 'sans-serif'; text-anchor: end" x="387.363636" y="201.852184" transform="rotate(-0, 387.363636, 201.852184)">0.10</text>
     </g>
    </g>
    <g id="ytick_9">
     <g id="text_26">
      <text style="fill: #262626; font: 10px 'sans-serif'; text-anchor: end" x="387.363636" y="172.718666" transform="rotate(-0, 387.363636, 172.718666)">0.15</text>
     </g>
    </g>
    <g id="ytick_10">
     <g id="text_27">
      <text style="fill: #262626; font: 10px 'sans-serif'; text-anchor: end" x="387.363636" y="143.585148" transform="rotate(-0, 387.363636, 143.585148)">0.20</text>
     </g>
    </g>
    <g id="ytick_11">
     <g id="text_28">
      <text style="fill: #262626; font: 10px 'sans-serif'; text-anchor: end" x="387.363636" y="114.451631" transform="rotate(-0, 387.363636, 114.451631)">0.25</text>
     </g>
    </g>
    <g id="ytick_12">
     <g id="text_29">
      <text style="fill: #262626; font: 10px 'sans-serif'; text-anchor: end" x="387.363636" y="85.318113" transform="rotate(-0, 387.363636, 85.318113)">0.30</text>
     </g>
    </g>
    <g id="ytick_13">
     <g id="text_30">
      <text style="fill: #262626; font: 10px 'sans-serif'; text-anchor: end" x="387.363636" y="56.184596" transform="rotate(-0, 387.363636, 56.184596)">0.35</text>
     </g>
    </g>
    <g id="text_31">
     <text style="fill: #262626; font: 10px 'sans-serif'; text-anchor: middle" x="359.018324" y="145.44" transform="rotate(-90, 359.018324, 145.44)">Density</text>
    </g>
   </g>
   <g id="patch_42">
    <path d="M 415.386929 256.32 
L 419.618725 256.32 
L 419.618725 214.988625 
L 415.386929 214.988625 
z
" clip-path="url(#pc58ff5a368)" style="fill: #1f77b4; opacity: 0.4; stroke: #ffffff; stroke-linejoin: miter"/>
   </g>
   <g id="patch_43">
    <path d="M 419.618725 256.32 
L 423.85052 256.32 
L 423.85052 253.549801 
L 419.618725 253.549801 
z
" clip-path="url(#pc58ff5a368)" style="fill: #1f77b4; opacity: 0.4; stroke: #ffffff; stroke-linejoin: miter"/>
   </g>
   <g id="patch_44">
    <path d="M 423.85052 256.32 
L 428.082316 256.32 
L 428.082316 252.441721 
L 423.85052 252.441721 
z
" clip-path="url(#pc58ff5a368)" style="fill: #1f77b4; opacity: 0.4; stroke: #ffffff; stroke-linejoin: miter"/>
   </g>
   <g id="patch_45">
    <path d="M 428.082316 256.32 
L 432.314112 256.32 
L 432.314112 252.774145 
L 428.082316 252.774145 
z
" clip-path="url(#pc58ff5a368)" style="fill: #1f77b4; opacity: 0.4; stroke: #ffffff; stroke-linejoin: miter"/>
   </g>
   <g id="patch_46">
    <path d="M 432.314112 256.32 
L 436.545907 256.32 
L 436.545907 252.884953 
L 432.314112 252.884953 
z
" clip-path="url(#pc58ff5a368)" style="fill: #1f77b4; opacity: 0.4; stroke: #ffffff; stroke-linejoin: miter"/>
   </g>
   <g id="patch_47">
    <path d="M 436.545907 256.32 
L 440.777703 256.32 
L 440.777703 249.782329 
L 436.545907 249.782329 
z
" clip-path="url(#pc58ff5a368)" style="fill: #1f77b4; opacity: 0.4; stroke: #ffffff; stroke-linejoin: miter"/>
   </g>
   <g id="patch_48">
    <path d="M 440.777703 256.32 
L 445.009498 256.32 
L 445.009498 248.563442 
L 440.777703 248.563442 
z
" clip-path="url(#pc58ff5a368)" style="fill: #1f77b4; opacity: 0.4; stroke: #ffffff; stroke-linejoin: miter"/>
   </g>
   <g id="patch_49">
    <path d="M 445.009498 256.32 
L 449.241294 256.32 
L 449.241294 247.455362 
L 445.009498 247.455362 
z
" clip-path="url(#pc58ff5a368)" style="fill: #1f77b4; opacity: 0.4; stroke: #ffffff; stroke-linejoin: miter"/>
   </g>
   <g id="patch_50">
    <path d="M 449.241294 256.32 
L 453.473089 256.32 
L 453.473089 246.236474 
L 449.241294 246.236474 
z
" clip-path="url(#pc58ff5a368)" style="fill: #1f77b4; opacity: 0.4; stroke: #ffffff; stroke-linejoin: miter"/>
   </g>
   <g id="patch_51">
    <path d="M 453.473089 256.32 
L 457.704885 256.32 
L 457.704885 239.033956 
L 453.473089 239.033956 
z
" clip-path="url(#pc58ff5a368)" style="fill: #1f77b4; opacity: 0.4; stroke: #ffffff; stroke-linejoin: miter"/>
   </g>
   <g id="patch_52">
    <path d="M 457.704885 256.32 
L 461.93668 256.32 
L 461.93668 229.947702 
L 457.704885 229.947702 
z
" clip-path="url(#pc58ff5a368)" style="fill: #1f77b4; opacity: 0.4; stroke: #ffffff; stroke-linejoin: miter"/>
   </g>
   <g id="patch_53">
    <path d="M 461.93668 256.32 
L 466.168476 256.32 
L 466.168476 222.9668 
L 461.93668 222.9668 
z
" clip-path="url(#pc58ff5a368)" style="fill: #1f77b4; opacity: 0.4; stroke: #ffffff; stroke-linejoin: miter"/>
   </g>
   <g id="patch_54">
    <path d="M 466.168476 256.32 
L 470.400272 256.32 
L 470.400272 203.907828 
L 466.168476 203.907828 
z
" clip-path="url(#pc58ff5a368)" style="fill: #1f77b4; opacity: 0.4; stroke: #ffffff; stroke-linejoin: miter"/>
   </g>
   <g id="patch_55">
    <path d="M 470.400272 256.32 
L 474.632067 256.32 
L 474.632067 171.551899 
L 470.400272 171.551899 
z
" clip-path="url(#pc58ff5a368)" style="fill: #1f77b4; opacity: 0.4; stroke: #ffffff; stroke-linejoin: miter"/>
   </g>
   <g id="patch_56">
    <path d="M 474.632067 256.32 
L 478.863863 256.32 
L 478.863863 135.650115 
L 474.632067 135.650115 
z
" clip-path="url(#pc58ff5a368)" style="fill: #1f77b4; opacity: 0.4; stroke: #ffffff; stroke-linejoin: miter"/>
   </g>
   <g id="patch_57">
    <path d="M 478.863863 256.32 
L 483.095658 256.32 
L 483.095658 88.33511 
L 478.863863 88.33511 
z
" clip-path="url(#pc58ff5a368)" style="fill: #1f77b4; opacity: 0.4; stroke: #ffffff; stroke-linejoin: miter"/>
   </g>
   <g id="patch_58">
    <path d="M 483.095658 256.32 
L 487.327454 256.32 
L 487.327454 70.938258 
L 483.095658 70.938258 
z
" clip-path="url(#pc58ff5a368)" style="fill: #1f77b4; opacity: 0.4; stroke: #ffffff; stroke-linejoin: miter"/>
   </g>
   <g id="patch_59">
    <path d="M 487.327454 256.32 
L 491.559249 256.32 
L 491.559249 45.12 
L 487.327454 45.12 
z
" clip-path="url(#pc58ff5a368)" style="fill: #1f77b4; opacity: 0.4; stroke: #ffffff; stroke-linejoin: miter"/>
   </g>
   <g id="patch_60">
    <path d="M 491.559249 256.32 
L 495.791045 256.32 
L 495.791045 58.527765 
L 491.559249 58.527765 
z
" clip-path="url(#pc58ff5a368)" style="fill: #1f77b4; opacity: 0.4; stroke: #ffffff; stroke-linejoin: miter"/>
   </g>
   <g id="patch_61">
    <path d="M 495.791045 256.32 
L 500.02284 256.32 
L 500.02284 58.638573 
L 495.791045 58.638573 
z
" clip-path="url(#pc58ff5a368)" style="fill: #1f77b4; opacity: 0.4; stroke: #ffffff; stroke-linejoin: miter"/>
   </g>
   <g id="patch_62">
    <path d="M 500.02284 256.32 
L 504.254636 256.32 
L 504.254636 74.927345 
L 500.02284 74.927345 
z
" clip-path="url(#pc58ff5a368)" style="fill: #1f77b4; opacity: 0.4; stroke: #ffffff; stroke-linejoin: miter"/>
   </g>
   <g id="patch_63">
    <path d="M 504.254636 256.32 
L 508.486432 256.32 
L 508.486432 111.493977 
L 504.254636 111.493977 
z
" clip-path="url(#pc58ff5a368)" style="fill: #1f77b4; opacity: 0.4; stroke: #ffffff; stroke-linejoin: miter"/>
   </g>
   <g id="patch_64">
    <path d="M 508.486432 256.32 
L 512.718227 256.32 
L 512.718227 129.666485 
L 508.486432 129.666485 
z
" clip-path="url(#pc58ff5a368)" style="fill: #1f77b4; opacity: 0.4; stroke: #ffffff; stroke-linejoin: miter"/>
   </g>
   <g id="patch_65">
    <path d="M 512.718227 256.32 
L 516.950023 256.32 
L 516.950023 155.706359 
L 512.718227 155.706359 
z
" clip-path="url(#pc58ff5a368)" style="fill: #1f77b4; opacity: 0.4; stroke: #ffffff; stroke-linejoin: miter"/>
   </g>
   <g id="patch_66">
    <path d="M 516.950023 256.32 
L 521.181818 256.32 
L 521.181818 177.313914 
L 516.950023 177.313914 
z
" clip-path="url(#pc58ff5a368)" style="fill: #1f77b4; opacity: 0.4; stroke: #ffffff; stroke-linejoin: miter"/>
   </g>
   <g id="patch_67">
    <path d="M 521.181818 256.32 
L 525.413614 256.32 
L 525.413614 193.491878 
L 521.181818 193.491878 
z
" clip-path="url(#pc58ff5a368)" style="fill: #1f77b4; opacity: 0.4; stroke: #ffffff; stroke-linejoin: miter"/>
   </g>
   <g id="patch_68">
    <path d="M 525.413614 256.32 
L 529.645409 256.32 
L 529.645409 209.780651 
L 525.413614 209.780651 
z
" clip-path="url(#pc58ff5a368)" style="fill: #1f77b4; opacity: 0.4; stroke: #ffffff; stroke-linejoin: miter"/>
   </g>
   <g id="patch_69">
    <path d="M 529.645409 256.32 
L 533.877205 256.32 
L 533.877205 226.734271 
L 529.645409 226.734271 
z
" clip-path="url(#pc58ff5a368)" style="fill: #1f77b4; opacity: 0.4; stroke: #ffffff; stroke-linejoin: miter"/>
   </g>
   <g id="patch_70">
    <path d="M 533.877205 256.32 
L 538.109 256.32 
L 538.109 236.152949 
L 533.877205 236.152949 
z
" clip-path="url(#pc58ff5a368)" style="fill: #1f77b4; opacity: 0.4; stroke: #ffffff; stroke-linejoin: miter"/>
   </g>
   <g id="patch_71">
    <path d="M 538.109 256.32 
L 542.340796 256.32 
L 542.340796 243.577083 
L 538.109 243.577083 
z
" clip-path="url(#pc58ff5a368)" style="fill: #1f77b4; opacity: 0.4; stroke: #ffffff; stroke-linejoin: miter"/>
   </g>
   <g id="patch_72">
    <path d="M 542.340796 256.32 
L 546.572592 256.32 
L 546.572592 246.679706 
L 542.340796 246.679706 
z
" clip-path="url(#pc58ff5a368)" style="fill: #1f77b4; opacity: 0.4; stroke: #ffffff; stroke-linejoin: miter"/>
   </g>
   <g id="patch_73">
    <path d="M 546.572592 256.32 
L 550.804387 256.32 
L 550.804387 250.114753 
L 546.572592 250.114753 
z
" clip-path="url(#pc58ff5a368)" style="fill: #1f77b4; opacity: 0.4; stroke: #ffffff; stroke-linejoin: miter"/>
   </g>
   <g id="patch_74">
    <path d="M 550.804387 256.32 
L 555.036183 256.32 
L 555.036183 252.441721 
L 550.804387 252.441721 
z
" clip-path="url(#pc58ff5a368)" style="fill: #1f77b4; opacity: 0.4; stroke: #ffffff; stroke-linejoin: miter"/>
   </g>
   <g id="patch_75">
    <path d="M 555.036183 256.32 
L 559.267978 256.32 
L 559.267978 254.103841 
L 555.036183 254.103841 
z
" clip-path="url(#pc58ff5a368)" style="fill: #1f77b4; opacity: 0.4; stroke: #ffffff; stroke-linejoin: miter"/>
   </g>
   <g id="patch_76">
    <path d="M 559.267978 256.32 
L 563.499774 256.32 
L 563.499774 253.771417 
L 559.267978 253.771417 
z
" clip-path="url(#pc58ff5a368)" style="fill: #1f77b4; opacity: 0.4; stroke: #ffffff; stroke-linejoin: miter"/>
   </g>
   <g id="patch_77">
    <path d="M 563.499774 256.32 
L 567.731569 256.32 
L 567.731569 254.214648 
L 563.499774 254.214648 
z
" clip-path="url(#pc58ff5a368)" style="fill: #1f77b4; opacity: 0.4; stroke: #ffffff; stroke-linejoin: miter"/>
   </g>
   <g id="patch_78">
    <path d="M 567.731569 256.32 
L 571.963365 256.32 
L 571.963365 254.990304 
L 567.731569 254.990304 
z
" clip-path="url(#pc58ff5a368)" style="fill: #1f77b4; opacity: 0.4; stroke: #ffffff; stroke-linejoin: miter"/>
   </g>
   <g id="patch_79">
    <path d="M 571.963365 256.32 
L 576.19516 256.32 
L 576.19516 255.101112 
L 571.963365 255.101112 
z
" clip-path="url(#pc58ff5a368)" style="fill: #1f77b4; opacity: 0.4; stroke: #ffffff; stroke-linejoin: miter"/>
   </g>
   <g id="patch_80">
    <path d="M 576.19516 256.32 
L 580.426956 256.32 
L 580.426956 254.879496 
L 576.19516 254.879496 
z
" clip-path="url(#pc58ff5a368)" style="fill: #1f77b4; opacity: 0.4; stroke: #ffffff; stroke-linejoin: miter"/>
   </g>
   <g id="patch_81">
    <path d="M 580.426956 256.32 
L 584.658752 256.32 
L 584.658752 254.65788 
L 580.426956 254.65788 
z
" clip-path="url(#pc58ff5a368)" style="fill: #1f77b4; opacity: 0.4; stroke: #ffffff; stroke-linejoin: miter"/>
   </g>
   <g id="patch_82">
    <path d="M 584.658752 256.32 
L 588.890547 256.32 
L 588.890547 255.76596 
L 584.658752 255.76596 
z
" clip-path="url(#pc58ff5a368)" style="fill: #1f77b4; opacity: 0.4; stroke: #ffffff; stroke-linejoin: miter"/>
   </g>
   <g id="patch_83">
    <path d="M 588.890547 256.32 
L 593.122343 256.32 
L 593.122343 255.876768 
L 588.890547 255.876768 
z
" clip-path="url(#pc58ff5a368)" style="fill: #1f77b4; opacity: 0.4; stroke: #ffffff; stroke-linejoin: miter"/>
   </g>
   <g id="patch_84">
    <path d="M 593.122343 256.32 
L 597.354138 256.32 
L 597.354138 255.987576 
L 593.122343 255.987576 
z
" clip-path="url(#pc58ff5a368)" style="fill: #1f77b4; opacity: 0.4; stroke: #ffffff; stroke-linejoin: miter"/>
   </g>
   <g id="patch_85">
    <path d="M 597.354138 256.32 
L 601.585934 256.32 
L 601.585934 255.76596 
L 597.354138 255.76596 
z
" clip-path="url(#pc58ff5a368)" style="fill: #1f77b4; opacity: 0.4; stroke: #ffffff; stroke-linejoin: miter"/>
   </g>
   <g id="patch_86">
    <path d="M 601.585934 256.32 
L 605.817729 256.32 
L 605.817729 255.876768 
L 601.585934 255.876768 
z
" clip-path="url(#pc58ff5a368)" style="fill: #1f77b4; opacity: 0.4; stroke: #ffffff; stroke-linejoin: miter"/>
   </g>
   <g id="patch_87">
    <path d="M 605.817729 256.32 
L 610.049525 256.32 
L 610.049525 255.987576 
L 605.817729 255.987576 
z
" clip-path="url(#pc58ff5a368)" style="fill: #1f77b4; opacity: 0.4; stroke: #ffffff; stroke-linejoin: miter"/>
   </g>
   <g id="patch_88">
    <path d="M 610.049525 256.32 
L 614.28132 256.32 
L 614.28132 255.987576 
L 610.049525 255.987576 
z
" clip-path="url(#pc58ff5a368)" style="fill: #1f77b4; opacity: 0.4; stroke: #ffffff; stroke-linejoin: miter"/>
   </g>
   <g id="patch_89">
    <path d="M 614.28132 256.32 
L 618.513116 256.32 
L 618.513116 256.32 
L 614.28132 256.32 
z
" clip-path="url(#pc58ff5a368)" style="fill: #1f77b4; opacity: 0.4; stroke: #ffffff; stroke-linejoin: miter"/>
   </g>
   <g id="patch_90">
    <path d="M 618.513116 256.32 
L 622.744911 256.32 
L 622.744911 256.32 
L 618.513116 256.32 
z
" clip-path="url(#pc58ff5a368)" style="fill: #1f77b4; opacity: 0.4; stroke: #ffffff; stroke-linejoin: miter"/>
   </g>
   <g id="patch_91">
    <path d="M 622.744911 256.32 
L 626.976707 256.32 
L 626.976707 255.987576 
L 622.744911 255.987576 
z
" clip-path="url(#pc58ff5a368)" style="fill: #1f77b4; opacity: 0.4; stroke: #ffffff; stroke-linejoin: miter"/>
   </g>
   <g id="line2d_2">
    <path d="M 405.892562 256.090631 
L 407.051248 255.675488 
L 408.209934 254.735407 
L 409.36862 252.910635 
L 410.527306 249.898822 
L 411.685992 245.729412 
L 412.844678 241.013596 
L 414.003364 236.913721 
L 415.16205 234.696057 
L 416.320736 235.072304 
L 417.479422 237.791254 
L 419.796794 245.832299 
L 420.95548 249.004125 
L 422.114166 251.022816 
L 423.272852 252.055246 
L 424.431538 252.452786 
L 426.74891 252.549569 
L 432.54234 252.706986 
L 433.701026 252.501739 
L 436.018398 251.704466 
L 444.1292 248.011492 
L 448.763944 246.541056 
L 449.92263 245.89752 
L 451.081316 244.991288 
L 452.240002 243.782985 
L 453.398688 242.263177 
L 454.557374 240.450677 
L 456.874746 236.168582 
L 461.50949 226.803354 
L 462.668176 224.095721 
L 463.826862 220.886847 
L 464.985548 216.97568 
L 466.144234 212.226271 
L 467.30292 206.58538 
L 468.461606 200.068231 
L 469.620292 192.724128 
L 471.937664 175.740571 
L 474.255036 155.933064 
L 480.048465 102.232293 
L 481.207151 93.392159 
L 482.365837 85.695198 
L 483.524523 78.971459 
L 485.841895 67.303448 
L 487.000581 62.092858 
L 488.159267 57.572152 
L 489.317953 54.215497 
L 490.476639 52.434022 
L 491.635325 52.315714 
L 492.794011 53.541285 
L 493.952697 55.545062 
L 497.428755 62.553619 
L 498.587441 65.433531 
L 499.746127 69.075295 
L 500.904813 73.675292 
L 502.063499 79.245456 
L 504.380871 92.53555 
L 513.650359 149.090722 
L 515.967731 161.418509 
L 518.285103 172.586841 
L 520.602475 182.729005 
L 524.078533 196.569156 
L 528.713277 214.689531 
L 531.030649 222.706845 
L 533.348021 229.456752 
L 535.665393 235.080713 
L 536.824079 237.479398 
L 537.982765 239.577343 
L 539.141451 241.363683 
L 540.300137 242.85421 
L 541.458823 244.096347 
L 543.776195 246.119532 
L 548.410939 249.716115 
L 550.728311 251.287211 
L 553.045683 252.434018 
L 555.363055 253.152933 
L 557.680427 253.58225 
L 561.156485 253.948114 
L 566.949915 254.493518 
L 570.425973 254.897186 
L 573.902031 255.024108 
L 577.378089 254.915438 
L 580.854147 254.81422 
L 583.171519 255.038761 
L 587.806263 255.70437 
L 591.282321 255.911605 
L 595.917065 255.883123 
L 601.710495 255.820974 
L 621.408156 256.201984 
L 626.0429 256.184064 
L 636.471074 256.319324 
L 636.471074 256.319324 
" clip-path="url(#pc58ff5a368)" style="fill: none; stroke: #1f77b4; stroke-width: 1.5; stroke-linecap: round"/>
   </g>
   <g id="patch_92">
    <path d="M 394.363636 256.32 
L 394.363636 34.56 
" style="fill: none; stroke: #262626; stroke-width: 0.8; stroke-linejoin: miter; stroke-linecap: square"/>
   </g>
   <g id="patch_93">
    <path d="M 648 256.32 
L 648 34.56 
" style="fill: none; stroke: #262626; stroke-width: 0.8; stroke-linejoin: miter; stroke-linecap: square"/>
   </g>
   <g id="patch_94">
    <path d="M 394.363636 256.32 
L 648 256.32 
" style="fill: none; stroke: #262626; stroke-width: 0.8; stroke-linejoin: miter; stroke-linecap: square"/>
   </g>
   <g id="patch_95">
    <path d="M 394.363636 34.56 
L 648 34.56 
" style="fill: none; stroke: #262626; stroke-width: 0.8; stroke-linejoin: miter; stroke-linecap: square"/>
   </g>
   <g id="text_32">
    <text style="fill: #262626; font: 12px 'sans-serif'; text-anchor: middle" x="521.181818" y="28.56" transform="rotate(-0, 521.181818, 28.56)">Bad Quality Data</text>
   </g>
  </g>
 </g>
 <defs>
  <clipPath id="p31a2d9b59d">
   <rect x="90" y="34.56" width="253.636364" height="221.76"/>
  </clipPath>
  <clipPath id="pc58ff5a368">
   <rect x="394.363636" y="34.56" width="253.636364" height="221.76"/>
  </clipPath>
 </defs>
</svg>
